<svg width="18" height="16" fill="none" xmlns="http://www.w3.org/2000/svg"><path d="M15.99 4.29a7.8 7.8 0 01.012.511c0 5.202-3.63 11.196-10.263 11.196A9.586 9.586 0 01.2 14.23c.29.037.57.05.871.05 1.686 0 3.239-.622 4.478-1.682-1.586-.037-2.915-1.17-3.372-2.729.223.037.446.061.68.061.325 0 .649-.049.95-.134C2.154 9.43.915 7.846.915 5.934v-.049c.48.293 1.038.475 1.63.5C1.574 5.678.937 4.472.937 3.108c0-.731.179-1.401.491-1.986C3.204 3.51 5.873 5.069 8.866 5.24a4.831 4.831 0 01-.09-.902c0-2.168 1.609-3.935 3.608-3.935 1.038 0 1.976.475 2.635 1.243.815-.17 1.597-.5 2.29-.95a3.882 3.882 0 01-1.586 2.168 6.762 6.762 0 002.077-.61 8.175 8.175 0 01-1.81 2.035z" fill="#2f3f59"/></svg>