<svg width="18" height="18" viewBox="0 0 18 18" fill="none" xmlns="http://www.w3.org/2000/svg">
<path d="M9.2019 4.68761C6.70472 4.68761 4.69048 6.70229 4.69048 9.20002C4.69048 11.6978 6.70472 13.7124 9.2019 13.7124C11.6991 13.7124 13.7133 11.6978 13.7133 9.20002C13.7133 6.70229 11.6991 4.68761 9.2019 4.68761ZM9.2019 12.1337C7.58815 12.1337 6.26889 10.8181 6.26889 9.20002C6.26889 7.58199 7.58423 6.26636 9.2019 6.26636C10.8196 6.26636 12.1349 7.58199 12.1349 9.20002C12.1349 10.8181 10.8156 12.1337 9.2019 12.1337ZM14.9501 4.50303C14.9501 5.08819 14.479 5.55553 13.8978 5.55553C13.3128 5.55553 12.8456 5.08426 12.8456 4.50303C12.8456 3.92179 13.3167 3.45052 13.8978 3.45052C14.479 3.45052 14.9501 3.92179 14.9501 4.50303ZM17.9381 5.57124C17.8713 4.16135 17.5494 2.91249 16.5167 1.88355C15.488 0.854604 14.2394 0.532569 12.8299 0.461879C11.3771 0.379406 7.02276 0.379406 5.56999 0.461879C4.16435 0.528642 2.91576 0.850677 1.88312 1.87962C0.850485 2.90856 0.532448 4.15743 0.461773 5.56731C0.379319 7.0204 0.379319 11.3757 0.461773 12.8288C0.528522 14.2387 0.850485 15.4876 1.88312 16.5165C2.91576 17.5454 4.16042 17.8675 5.56999 17.9382C7.02276 18.0206 11.3771 18.0206 12.8299 17.9382C14.2394 17.8714 15.488 17.5494 16.5167 16.5165C17.5455 15.4876 17.8674 14.2387 17.9381 12.8288C18.0205 11.3757 18.0205 7.02432 17.9381 5.57124ZM16.0613 14.3879C15.755 15.1577 15.1621 15.7507 14.3886 16.0609C13.2304 16.5204 10.4819 16.4144 9.2019 16.4144C7.9219 16.4144 5.1695 16.5165 4.01515 16.0609C3.24558 15.7546 2.65269 15.1616 2.34251 14.3879C1.88312 13.2294 1.98914 10.4803 1.98914 9.20002C1.98914 7.91974 1.88705 5.16673 2.34251 4.01212C2.64877 3.24238 3.24165 2.64936 4.01515 2.33911C5.17343 1.87962 7.9219 1.98565 9.2019 1.98565C10.4819 1.98565 13.2343 1.88355 14.3886 2.33911C15.1582 2.64543 15.7511 3.23845 16.0613 4.01212C16.5207 5.17066 16.4147 7.91974 16.4147 9.20002C16.4147 10.4803 16.5207 13.2333 16.0613 14.3879Z" fill="#2f3f59"/>
</svg>
