<svg width="18" height="16" viewBox="0 0 18 16" fill="none" xmlns="http://www.w3.org/2000/svg">
<path d="M15.9908 4.28935C16.002 4.4599 16.002 4.63049 16.002 4.80104C16.002 10.003 12.3726 15.997 5.73908 15.997C3.69542 15.997 1.79696 15.3513 0.199997 14.2305C0.490363 14.267 0.769522 14.2792 1.07106 14.2792C2.75733 14.2792 4.30963 13.6579 5.54923 12.598C3.96344 12.5614 2.6345 11.4285 2.17663 9.86905C2.4 9.90558 2.62333 9.92995 2.85787 9.92995C3.18172 9.92995 3.5056 9.8812 3.8071 9.79596C2.15432 9.43045 0.914688 7.84671 0.914688 5.93403V5.88531C1.39487 6.1777 1.95329 6.36044 2.54513 6.38478C1.57355 5.67816 0.937031 4.47209 0.937031 3.10761C0.937031 2.37666 1.11568 1.70661 1.42839 1.12184C3.20403 3.50965 5.87308 5.06901 8.86593 5.2396C8.81011 4.94721 8.77659 4.64268 8.77659 4.3381C8.77659 2.16955 10.3847 0.403076 12.3837 0.403076C13.4223 0.403076 14.3603 0.878201 15.0192 1.64571C15.8344 1.47516 16.6162 1.14621 17.3086 0.695464C17.0405 1.60919 16.471 2.3767 15.7228 2.86398C16.4487 2.77874 17.1522 2.5594 17.7999 2.25486C17.3086 3.03453 16.6944 3.72891 15.9908 4.28935Z" fill="#2f3f59"/>
</svg>
