<svg width="25" height="19" viewBox="0 0 25 19" fill="none" xmlns="http://www.w3.org/2000/svg">
<path d="M24.4776 3.01634C24.1901 1.90775 23.3429 1.03465 22.2673 0.738357C20.3177 0.199951 12.5 0.199951 12.5 0.199951C12.5 0.199951 4.68232 0.199951 2.73266 0.738357C1.65706 1.0347 0.80992 1.90775 0.522399 3.01634C0 5.02573 0 9.21814 0 9.21814C0 9.21814 0 13.4105 0.522399 15.4199C0.80992 16.5285 1.65706 17.3652 2.73266 17.6615C4.68232 18.2 12.5 18.2 12.5 18.2C12.5 18.2 20.3177 18.2 22.2673 17.6615C23.3429 17.3652 24.1901 16.5285 24.4776 15.4199C25 13.4105 25 9.21814 25 9.21814C25 9.21814 25 5.02573 24.4776 3.01634ZM9.94316 13.0245V5.41175L16.4772 9.21823L9.94316 13.0245Z" fill="#2f3f59"/>
</svg>
